<?xml version="1.0" encoding="UTF-8"?>
<!--Generator: Apple Native CoreSVG 360-->
<!DOCTYPE svg
PUBLIC "-//W3C//DTD SVG 1.1//EN"
       "http://www.w3.org/Graphics/SVG/1.1/DTD/svg11.dtd">
<svg version="1.1" xmlns="http://www.w3.org/2000/svg" xmlns:xlink="http://www.w3.org/1999/xlink" viewBox="0 0 123.682 94.3848">
 <g>
  <rect height="94.3848" opacity="0" width="123.682" x="0" y="0"/>
  <path d="M61.8652 74.5605C64.5508 74.5605 66.748 72.3633 66.748 69.6777L66.748 45.1172C66.748 43.9453 66.3086 42.8711 65.3809 41.7969L52.5879 27.5391C51.8066 26.6602 52.3438 25.3418 53.5645 25.3418L69.2383 25.3418C71.1426 25.3418 71.7285 26.709 71.7285 28.0273L71.7285 40.1855C71.7285 42.8711 73.9258 45.0195 76.6113 45.0195L96.2891 45.0195C98.9746 45.0195 101.123 42.8711 101.123 40.1855C101.123 37.5 98.9746 35.3027 96.2891 35.3027L81.4941 35.3027L81.4941 18.0176C81.4941 12.5488 77.1484 8.20312 71.6797 8.20312L47.7051 8.20312C42.7246 8.20312 38.3301 11.2305 36.377 15.7715C34.4727 20.4102 35.5469 25.5859 39.0625 29.1504L56.9824 47.168L56.9824 69.6777C56.9824 72.3633 59.1797 74.5605 61.8652 74.5605ZM26.5137 93.7988C41.2598 93.7988 53.0762 81.9824 53.0762 67.2363C53.0762 52.5391 41.2598 40.6738 26.5137 40.6738C11.8164 40.6738 0 52.5391 0 67.2363C0 81.9824 11.8164 93.7988 26.5137 93.7988ZM26.5137 86.9141C15.7227 86.9141 6.88477 78.0762 6.88477 67.2363C6.88477 56.3965 15.7227 47.5586 26.5137 47.5586C37.3535 47.5586 46.1914 56.3965 46.1914 67.2363C46.1914 78.0762 37.3535 86.9141 26.5137 86.9141ZM110.254 52.6367C114.209 56.2012 116.797 61.4258 116.797 67.2363C116.797 78.0762 107.959 86.9141 97.168 86.9141C86.3281 86.9141 77.4902 78.0762 77.4902 67.2363C77.4902 64.502 78.0273 61.8164 79.0527 59.4727C80.1758 56.8359 79.0527 54.9805 77.3438 54.3945C75.7324 53.7598 73.8281 54.2969 72.9492 56.3965C71.4355 59.7656 70.6055 63.3789 70.6055 67.2363C70.6055 81.9824 82.4219 93.7988 97.168 93.7988C111.865 93.7988 123.682 81.9824 123.682 67.2363C123.682 59.2285 120.215 52.1973 114.6 47.2656C112.793 45.7031 110.742 46.0938 109.521 47.4121C108.35 48.7305 108.154 50.7812 110.254 52.6367ZM97.168 21.3379C103.027 21.3379 107.764 16.5527 107.764 10.6445C107.764 4.78516 103.027 0 97.168 0C91.2109 0 86.4258 4.78516 86.4258 10.6445C86.4258 16.5527 91.2109 21.3379 97.168 21.3379Z" fill="white" fill-opacity="0.85"/>
 </g>
</svg>
